<svg width="482" height="414" viewBox="0 0 482 414" fill="none" xmlns="http://www.w3.org/2000/svg">
<path d="M481.136 201.995C481.166 203.101 481.187 204.208 481.197 205.318L480.369 205.325C480.374 205.878 480.376 206.43 480.376 206.984C480.376 207.537 480.374 208.09 480.369 208.642L481.197 208.65C481.187 209.759 481.166 210.867 481.136 211.972L480.308 211.949C480.277 213.049 480.237 214.147 480.186 215.243L481.013 215.281C480.963 216.385 480.901 217.487 480.83 218.587L480.004 218.533C479.932 219.635 479.851 220.735 479.759 221.832L480.585 221.901C480.493 223.004 480.391 224.104 480.279 225.201L479.455 225.117C479.343 226.21 479.222 227.301 479.09 228.39L479.912 228.489C479.779 229.59 479.636 230.689 479.483 231.784L478.662 231.67C478.51 232.76 478.347 233.848 478.175 234.934L478.993 235.064C478.82 236.154 478.637 237.242 478.444 238.327L477.628 238.182C477.435 239.268 477.232 240.351 477.019 241.431L477.832 241.591C477.618 242.677 477.394 243.759 477.16 244.839L476.351 244.664C476.118 245.738 475.876 246.81 475.624 247.879L476.43 248.069C476.176 249.146 475.912 250.221 475.638 251.292L474.836 251.087C474.563 252.154 474.281 253.217 473.989 254.278L474.788 254.498C474.495 255.563 474.192 256.625 473.88 257.684L473.085 257.45C472.774 258.506 472.453 259.559 472.122 260.608L472.913 260.857C472.58 261.911 472.239 262.963 471.888 264.011L471.102 263.748C470.753 264.791 470.394 265.831 470.026 266.867L470.806 267.145C470.436 268.186 470.057 269.224 469.668 270.259L468.893 269.967C468.506 270.998 468.11 272.024 467.704 273.047L468.474 273.352C468.067 274.38 467.65 275.404 467.225 276.424L466.46 276.105C466.037 277.121 465.604 278.132 465.163 279.14L465.921 279.473C465.478 280.485 465.026 281.493 464.564 282.497L463.812 282.152C463.352 283.152 462.884 284.148 462.407 285.14L463.154 285.499C462.675 286.495 462.187 287.487 461.691 288.475L460.951 288.103C460.457 289.086 459.955 290.065 459.444 291.039L460.177 291.424C459.664 292.403 459.142 293.377 458.612 294.348L457.885 293.951C457.358 294.917 456.821 295.878 456.277 296.836L456.997 297.245C456.451 298.205 455.897 299.16 455.334 300.111L454.621 299.69C454.061 300.637 453.493 301.579 452.916 302.518L453.622 302.952C453.043 303.894 452.456 304.831 451.861 305.764L451.162 305.319C450.571 306.245 449.973 307.167 449.366 308.085L450.056 308.542C449.447 309.463 448.83 310.38 448.204 311.293L447.521 310.825C446.898 311.733 446.268 312.638 445.629 313.537L446.304 314.017C445.666 314.916 445.02 315.811 444.366 316.701L443.699 316.21C443.048 317.097 442.389 317.979 441.723 318.856L442.382 319.357C441.713 320.238 441.036 321.114 440.352 321.986L439.701 321.474C439.022 322.338 438.337 323.197 437.643 324.052L438.287 324.574C437.591 325.431 436.888 326.284 436.178 327.132L435.543 326.6C434.836 327.444 434.121 328.284 433.399 329.119L434.026 329.66C433.304 330.495 432.575 331.325 431.839 332.15L431.221 331.598C430.49 332.418 429.751 333.234 429.005 334.044L429.614 334.605C428.866 335.418 428.11 336.227 427.347 337.031L426.747 336.461C425.99 337.258 425.226 338.051 424.455 338.839L425.047 339.418C424.276 340.206 423.498 340.99 422.713 341.768L422.13 341.18C421.348 341.955 420.56 342.725 419.765 343.491L420.339 344.087C419.543 344.854 418.74 345.615 417.931 346.371L417.365 345.766C416.563 346.515 415.754 347.26 414.939 347.999L415.495 348.613C414.677 349.355 413.852 350.092 413.021 350.823L412.474 350.202C411.647 350.93 410.813 351.653 409.973 352.371L410.512 353.001C409.674 353.717 408.831 354.427 407.982 355.132L407.453 354.495C406.606 355.198 405.754 355.895 404.895 356.587L405.415 357.232C404.554 357.926 403.686 358.616 402.813 359.299L402.303 358.647C401.438 359.324 400.567 359.996 399.691 360.662L400.192 361.321C399.314 361.989 398.43 362.651 397.54 363.308L397.048 362.642C396.162 363.296 395.27 363.945 394.372 364.589L394.854 365.262C393.957 365.905 393.055 366.542 392.147 367.174L391.674 366.494C390.772 367.122 389.865 367.744 388.952 368.36L389.416 369.047C388.5 369.665 387.579 370.278 386.653 370.886L386.198 370.193C385.277 370.797 384.35 371.396 383.419 371.989L383.863 372.687C382.934 373.279 381.999 373.864 381.06 374.444L380.625 373.74C379.688 374.318 378.747 374.89 377.8 375.457L378.226 376.168C377.276 376.736 376.321 377.299 375.362 377.856L374.946 377.14C373.997 377.691 373.042 378.236 372.084 378.776L372.49 379.498C371.528 380.039 370.562 380.574 369.591 381.104L369.195 380.377C368.227 380.905 367.254 381.427 366.277 381.943L366.664 382.675C365.688 383.191 364.708 383.7 363.723 384.204L363.346 383.467C362.368 383.967 361.385 384.462 360.398 384.95L360.766 385.692C359.775 386.183 358.781 386.667 357.781 387.146L357.424 386.399C356.429 386.875 355.431 387.345 354.428 387.809L354.776 388.561C353.776 389.024 352.773 389.48 351.765 389.931L351.427 389.175C350.423 389.624 349.414 390.068 348.401 390.505L348.73 391.265C347.714 391.704 346.694 392.137 345.67 392.564L345.351 391.799C344.337 392.222 343.319 392.638 342.297 393.049L342.606 393.818C341.583 394.229 340.556 394.634 339.525 395.033L339.226 394.26C338.198 394.658 337.167 395.05 336.131 395.436L336.421 396.212C335.385 396.598 334.345 396.977 333.302 397.351L333.023 396.571C331.989 396.942 330.952 397.306 329.911 397.664L330.181 398.447C329.137 398.806 328.089 399.159 327.038 399.506L326.778 398.72C325.731 399.066 324.679 399.405 323.624 399.739L323.874 400.529C322.824 400.861 321.77 401.187 320.713 401.507L320.473 400.714C319.421 401.032 318.365 401.344 317.307 401.65L317.537 402.446C316.475 402.753 315.409 403.054 314.341 403.349L314.12 402.55C313.058 402.843 311.993 403.129 310.924 403.41L311.135 404.211C310.07 404.49 309.002 404.764 307.93 405.031L307.73 404.227C306.662 404.493 305.591 404.754 304.517 405.007L304.708 405.813C303.63 406.068 302.55 406.316 301.467 406.558L301.286 405.75C300.214 405.99 299.139 406.223 298.062 406.45L298.232 407.26C297.154 407.488 296.072 407.709 294.988 407.923L294.827 407.111C293.746 407.325 292.663 407.533 291.576 407.734L291.727 408.549C290.64 408.751 289.549 408.946 288.456 409.135L288.315 408.319C287.234 408.506 286.15 408.687 285.064 408.861L285.196 409.679C284.106 409.854 283.014 410.023 281.919 410.185L281.798 409.366C280.707 409.528 279.613 409.683 278.517 409.832L278.628 410.653C277.535 410.802 276.44 410.944 275.342 411.08L275.24 410.258C274.15 410.393 273.058 410.522 271.964 410.645L272.056 411.468C270.958 411.591 269.858 411.707 268.756 411.817L268.674 410.993C267.575 411.103 266.473 411.206 265.37 411.303L265.442 412.128C264.347 412.225 263.249 412.315 262.149 412.398L262.086 411.573C260.99 411.656 259.892 411.733 258.792 411.804L258.845 412.63C257.742 412.701 256.636 412.766 255.529 412.824L255.486 411.997C254.384 412.054 253.281 412.106 252.176 412.151L252.21 412.978C251.111 413.023 250.01 413.061 248.907 413.094L248.883 412.266C247.784 412.298 246.682 412.323 245.579 412.342L245.593 413.171C244.487 413.19 243.379 413.203 242.269 413.209L242.264 412.381C241.71 412.384 241.157 412.386 240.602 412.386C240.048 412.386 239.494 412.384 238.94 412.381L238.936 413.209C237.825 413.203 236.717 413.19 235.611 413.171L235.625 412.342C234.522 412.323 233.421 412.298 232.321 412.266L232.297 413.094C231.194 413.061 230.094 413.023 228.995 412.978L229.028 412.151C227.923 412.106 226.82 412.054 225.719 411.997L225.675 412.824C224.568 412.766 223.462 412.701 222.359 412.63L222.412 411.804C221.312 411.733 220.214 411.656 219.118 411.573L219.055 412.398C217.955 412.315 216.858 412.225 215.762 412.128L215.834 411.303C214.731 411.206 213.63 411.103 212.531 410.993L212.448 411.817C211.346 411.707 210.246 411.591 209.148 411.468L209.24 410.645C208.146 410.522 207.054 410.393 205.964 410.258L205.862 411.08C204.764 410.944 203.669 410.802 202.576 410.653L202.688 409.832C201.592 409.683 200.498 409.528 199.406 409.366L199.285 410.185C198.19 410.023 197.098 409.854 196.009 409.679L196.14 408.861C195.054 408.687 193.97 408.506 192.889 408.319L192.748 409.135C191.655 408.946 190.565 408.75 189.477 408.549L189.628 407.734C188.542 407.533 187.458 407.325 186.377 407.111L186.216 407.923C185.132 407.709 184.05 407.488 182.972 407.26L183.143 406.45C182.065 406.223 180.99 405.99 179.918 405.75L179.738 406.558C178.654 406.316 177.574 406.068 176.497 405.813L176.687 405.007C175.613 404.754 174.542 404.493 173.474 404.227L173.274 405.031C172.203 404.764 171.135 404.49 170.07 404.211L170.28 403.41C169.211 403.129 168.146 402.843 167.084 402.55L166.864 403.348C165.795 403.054 164.73 402.753 163.668 402.446L163.898 401.65C162.839 401.344 161.783 401.032 160.731 400.714L160.492 401.506C159.434 401.187 158.381 400.861 157.331 400.529L157.58 399.739C156.525 399.405 155.474 399.065 154.426 398.72L154.166 399.506C153.115 399.159 152.068 398.806 151.023 398.447L151.293 397.664C150.252 397.306 149.215 396.941 148.182 396.571L147.902 397.351C146.859 396.977 145.82 396.598 144.784 396.212L145.073 395.436C144.038 395.05 143.006 394.658 141.979 394.26L141.68 395.033C140.649 394.634 139.622 394.229 138.599 393.818L138.907 393.049C137.885 392.638 136.867 392.222 135.853 391.799L135.535 392.564C134.511 392.137 133.49 391.704 132.475 391.265L132.803 390.505C131.79 390.067 130.782 389.624 129.777 389.175L129.439 389.931C128.432 389.48 127.428 389.023 126.429 388.561L126.777 387.809C125.774 387.345 124.775 386.875 123.781 386.398L123.423 387.145C122.424 386.667 121.429 386.183 120.439 385.692L120.806 384.95C119.819 384.461 118.837 383.967 117.859 383.467L117.482 384.204C116.497 383.7 115.516 383.191 114.54 382.675L114.927 381.943C113.95 381.427 112.978 380.905 112.01 380.377L111.613 381.104C110.642 380.574 109.676 380.039 108.715 379.498L109.121 378.776C108.162 378.236 107.208 377.691 106.259 377.14L105.843 377.856C104.883 377.299 103.929 376.736 102.979 376.167L103.404 375.457C102.458 374.89 101.516 374.318 100.58 373.74L100.145 374.444C99.2052 373.864 98.2707 373.279 97.3413 372.687L97.7859 371.989C96.8541 371.396 95.9274 370.797 95.0061 370.193L94.5519 370.886C93.6255 370.278 92.7045 369.665 91.7887 369.047L92.2524 368.36C91.3398 367.744 90.4326 367.122 89.5309 366.494L89.0578 367.174C88.1497 366.542 87.2471 365.905 86.3501 365.262L86.8326 364.589C85.9348 363.945 85.0426 363.296 84.156 362.642L83.6641 363.308C82.7744 362.651 81.8904 361.989 81.0121 361.321L81.5134 360.662C80.6371 359.996 79.7666 359.324 78.9019 358.647L78.3913 359.299C77.5181 358.615 76.6507 357.926 75.7892 357.232L76.3091 356.587C75.4507 355.895 74.5983 355.198 73.752 354.495L73.2229 355.132C72.3735 354.427 71.5302 353.717 70.6929 353.001L71.2311 352.371C70.3914 351.653 69.5578 350.93 68.7305 350.202L68.1831 350.823C67.3522 350.092 66.5276 349.355 65.7094 348.613L66.2658 347.999C65.4506 347.26 64.6417 346.515 63.8392 345.766L63.2738 346.371C62.4646 345.615 61.6618 344.854 60.8656 344.087L61.4399 343.491C60.6449 342.725 59.8565 341.955 59.0748 341.18L58.4916 341.768C57.7069 340.99 56.9288 340.206 56.1576 339.418L56.7496 338.839C55.9789 338.051 55.2149 337.258 54.4579 336.46L53.8571 337.03C53.0945 336.227 52.3388 335.418 51.5901 334.605L52.1995 334.044C51.4537 333.233 50.7149 332.418 49.9831 331.598L49.3651 332.149C48.6292 331.325 47.9004 330.495 47.1788 329.66L47.8053 329.119C47.0834 328.284 46.3687 327.444 45.6613 326.6L45.0264 327.131C44.3162 326.284 43.6134 325.431 42.9179 324.574L43.5611 324.052C42.868 323.197 42.1822 322.338 41.5039 321.474L40.8525 321.986C40.1682 321.114 39.4915 320.238 38.8224 319.357L39.4819 318.856C38.8155 317.979 38.1567 317.097 37.5056 316.21L36.8381 316.701C36.1844 315.81 35.5383 314.916 34.9001 314.016L35.5755 313.537C34.937 312.637 34.3063 311.733 33.6836 310.825L33.0004 311.293C32.375 310.38 31.7575 309.463 31.1481 308.542L31.8389 308.085C31.232 307.167 30.6331 306.245 30.0422 305.319L29.344 305.764C28.7487 304.831 28.1617 303.893 27.5829 302.951L28.2886 302.518C27.7118 301.579 27.1433 300.636 26.5832 299.689L25.8703 300.111C25.3077 299.16 24.7535 298.204 24.2078 297.245L24.9277 296.835C24.3831 295.878 23.8469 294.916 23.3193 293.951L22.5925 294.348C22.0621 293.377 21.5403 292.402 21.0271 291.423L21.7607 291.039C21.2497 290.064 20.7474 289.086 20.2538 288.103L19.5137 288.475C19.0173 287.487 18.5298 286.495 18.051 285.499L18.7975 285.14C18.3204 284.148 17.8522 283.151 17.3929 282.151L16.6403 282.497C16.1789 281.493 15.7265 280.484 15.2831 279.472L16.0418 279.14C15.6002 278.132 15.1676 277.12 14.7441 276.105L13.9797 276.424C13.5541 275.404 13.1377 274.38 12.7305 273.352L13.5004 273.047C13.095 272.024 12.6988 270.997 12.3117 269.967L11.5364 270.258C11.1478 269.224 10.7684 268.186 10.3983 267.144L11.1788 266.867C10.8106 265.831 10.4517 264.791 10.1023 263.747L9.31691 264.01C8.96584 262.962 8.6242 261.911 8.29208 260.856L9.08207 260.608C8.75166 259.558 8.43071 258.506 8.11931 257.45L7.3249 257.684C7.0126 256.625 6.70985 255.563 6.41674 254.497L7.2153 254.277C6.92354 253.217 6.64137 252.153 6.36889 251.086L5.56641 251.291C5.29283 250.22 5.02896 249.146 4.77488 248.069L5.581 247.879C5.32894 246.81 5.08658 245.738 4.85397 244.663L4.04448 244.839C3.8108 243.759 3.58693 242.676 3.37296 241.591L4.18556 241.431C3.9726 240.35 3.76948 239.267 3.5763 238.181L2.76087 238.326C2.56788 237.241 2.38475 236.154 2.21156 235.063L3.02954 234.933C2.85716 233.848 2.69468 232.76 2.54217 231.669L1.72192 231.784C1.5687 230.688 1.42551 229.59 1.29242 228.489L2.11467 228.39C1.98308 227.301 1.86142 226.21 1.74977 225.117L0.925815 225.201C0.813746 224.103 0.711708 223.003 0.619778 221.901L1.44515 221.832C1.35364 220.735 1.2722 219.635 1.2009 218.533L0.374393 218.586C0.303247 217.487 0.24215 216.385 0.191181 215.281L1.01853 215.243C0.967948 214.147 0.927383 213.049 0.896916 211.949L0.0689976 211.972C0.0383895 210.866 0.0179266 209.759 0.00768557 208.649L0.835886 208.642C0.830789 208.089 0.828235 207.537 0.828235 206.984C0.828235 206.43 0.83079 205.877 0.83589 205.325L0.00768959 205.317C0.0179333 204.208 0.0383988 203.1 0.0690094 201.995L0.896927 202.018C0.927397 200.918 0.967964 199.82 1.01855 198.724L0.1912 198.686C0.242172 197.582 0.303271 196.48 0.37442 195.38L1.20093 195.434C1.27223 194.332 1.35367 193.232 1.44518 192.135L0.619811 192.066C0.711743 190.964 0.813783 189.864 0.925854 188.766L1.7498 188.85C1.86146 187.757 1.98313 186.666 2.11471 185.577L1.29247 185.478C1.42556 184.377 1.56875 183.278 1.72197 182.183L2.54223 182.297C2.69473 181.207 2.85722 180.119 3.0296 179.033L2.21162 178.903C2.38481 177.813 2.56794 176.725 2.76093 175.64L3.57636 175.785C3.76955 174.699 3.97266 173.616 4.18562 172.536L3.37303 172.376C3.587 171.29 3.81088 170.208 4.04456 169.128L4.85405 169.303C5.08665 168.229 5.32902 167.157 5.58108 166.088L4.77496 165.898C5.02904 164.821 5.29292 163.746 5.5665 162.675L6.36898 162.88C6.64146 161.813 6.92363 160.75 7.21539 159.689L6.41683 159.47C6.70994 158.404 7.01269 157.342 7.325 156.283L8.11941 156.517C8.43081 155.461 8.75176 154.409 9.08217 153.359L8.29218 153.11C8.6243 152.056 8.96594 151.004 9.31702 149.956L10.1024 150.219C10.4518 149.176 10.8107 148.136 11.1789 147.1L10.3985 146.823C10.7685 145.781 11.1479 144.743 11.5365 143.708L12.3119 144C12.6989 142.969 13.0951 141.943 13.5006 140.92L12.7306 140.615C13.1378 139.587 13.5543 138.563 13.9798 137.543L14.7442 137.862C15.1677 136.846 15.6003 135.835 16.0419 134.827L15.2833 134.494C15.7267 133.482 16.1791 132.474 16.6404 131.47L17.393 131.815C17.8524 130.815 18.3206 129.819 18.7976 128.827L18.0511 128.468C18.5299 127.472 19.0175 126.48 19.5138 125.492L20.2539 125.864C20.7475 124.881 21.2499 123.903 21.7608 122.928L21.0273 122.543C21.5404 121.564 22.0622 120.59 22.5926 119.619L23.3194 120.016C23.8471 119.05 24.3832 118.089 24.9278 117.131L24.2079 116.722C24.7537 115.762 25.3079 114.807 25.8704 113.856L26.5833 114.278C27.1435 113.33 27.712 112.388 28.2887 111.449L27.5831 111.015C28.1618 110.073 28.7489 109.136 29.3441 108.203L30.0424 108.648C30.6332 107.722 31.2321 106.8 31.839 105.882L31.1482 105.425C31.7576 104.504 32.3751 103.587 33.0005 102.674L33.6837 103.142C34.3064 102.234 34.9371 101.329 35.5757 100.43L34.9002 99.9504C35.5385 99.0512 36.1845 98.1565 36.8382 97.2663L37.5058 97.7566C38.1569 96.8701 38.8157 95.9881 39.4821 95.1108L38.8225 94.6098C39.4916 93.7289 40.1683 92.8527 40.8526 91.9812L41.5041 92.4927C42.1824 91.6288 42.8681 90.7696 43.5613 89.9151L42.918 89.3933C43.6135 88.5359 44.3164 87.6833 45.0265 86.8355L45.6614 87.3673C46.3688 86.5229 47.0835 85.6831 47.8054 84.8483L47.1789 84.3065C47.9005 83.472 48.6293 82.6423 49.3652 81.8175L49.9832 82.3689C50.715 81.5487 51.4538 80.7334 52.1997 79.923L51.5902 79.3621C52.3389 78.5486 53.0946 77.74 53.8572 76.9364L54.458 77.5065C55.2151 76.7088 55.979 75.916 56.7497 75.1282L56.1577 74.549C56.929 73.7606 57.707 72.9773 58.4917 72.1991L59.0749 72.7871C59.8567 72.0118 60.6451 71.2415 61.4401 70.4764L60.8657 69.8796C61.6619 69.1133 62.4647 68.3521 63.274 67.5961L63.8394 68.2014C64.6418 67.4517 65.4507 66.7072 66.266 65.9678L65.7096 65.3543C66.5278 64.6122 67.3524 63.8754 68.1833 63.1437L68.7306 63.7654C69.5579 63.0369 70.3915 62.3137 71.2313 61.5957L70.6931 60.9662C71.5303 60.2504 72.3737 59.5399 73.2231 58.8347L73.7522 59.4719C74.5985 58.7693 75.4509 58.0719 76.3092 57.3799L75.7894 56.7351C76.6508 56.0406 77.5182 55.3515 78.3915 54.6678L78.9021 55.32C79.7668 54.643 80.6373 53.9714 81.5136 53.3052L81.0123 52.6459C81.8906 51.9782 82.7746 51.3159 83.6643 50.6591L84.1562 51.3254C85.0427 50.6709 85.9349 50.0219 86.8327 49.3784L86.3502 48.7052C87.2473 48.0622 88.1499 47.4247 89.0579 46.7928L89.531 47.4726C90.4328 46.8451 91.34 46.2231 92.2525 45.6066L91.7889 44.9203C92.7046 44.3017 93.6257 43.6886 94.5521 43.0812L95.0062 43.7739C95.9276 43.1698 96.8542 42.5712 97.786 41.9784L97.3415 41.2796C98.2709 40.6883 99.2054 40.1026 100.145 39.5225L100.58 40.2273C101.516 39.6493 102.458 39.0768 103.404 38.5101L102.979 37.7995C103.929 37.2309 104.883 36.668 105.843 36.1108L106.259 36.8271C107.208 36.276 108.162 35.7306 109.121 35.1909L108.715 34.4692C109.676 33.928 110.643 33.3927 111.614 32.8631L112.01 33.5902C112.978 33.0624 113.95 32.5404 114.928 32.0242L114.541 31.2919C115.516 30.7764 116.497 30.2667 117.482 29.7629L117.859 30.5003C118.837 30 119.82 29.5055 120.807 29.0168L120.439 28.2746C121.429 27.7843 122.424 27.2999 123.423 26.8215L123.781 27.5685C124.775 27.0923 125.774 26.622 126.777 26.1576L126.429 25.406C127.428 24.9435 128.432 24.4868 129.439 24.0361L129.778 24.7921C130.782 24.3428 131.791 23.8995 132.803 23.4621L132.475 22.7017C133.491 22.2629 134.511 21.8301 135.535 21.4033L135.853 22.1678C136.868 21.7452 137.886 21.3286 138.908 20.9179L138.599 20.1494C139.622 19.7383 140.649 19.3332 141.68 18.9342L141.979 19.7066C143.007 19.3088 144.038 18.917 145.073 18.5313L144.784 17.7552C145.82 17.3694 146.859 16.9896 147.903 16.6159L148.182 17.3957C149.215 17.0255 150.252 16.6614 151.293 16.3033L151.024 15.5201C152.068 15.1609 153.115 14.8078 154.167 14.4608L154.426 15.2473C155.474 14.9015 156.526 14.5617 157.581 14.2281L157.331 13.4384C158.381 13.1063 159.435 12.7804 160.492 12.4605L160.732 13.2533C161.784 12.9349 162.839 12.6227 163.898 12.3166L163.668 11.521C164.73 11.214 165.795 10.9131 166.864 10.6185L167.084 11.417C168.146 11.1242 169.212 10.8376 170.28 10.5571L170.07 9.75603C171.135 9.47656 172.203 9.20326 173.274 8.93617L173.475 9.7398C174.543 9.47353 175.614 9.21345 176.688 8.95961L176.497 8.15358C177.574 7.89896 178.655 7.65061 179.738 7.40856L179.919 8.21686C180.991 7.97736 182.065 7.74406 183.143 7.517L182.972 6.70656C184.051 6.47931 185.132 6.25829 186.216 6.04356L186.377 6.85601C187.458 6.64193 188.542 6.43411 189.629 6.23259L189.477 5.41824C190.565 5.21652 191.656 5.02109 192.749 4.83202L192.89 5.64813C193.971 5.46115 195.054 5.2804 196.14 5.10592L196.009 4.28817C197.099 4.11317 198.191 3.94446 199.285 3.78209L199.407 4.60136C200.498 4.43947 201.592 4.28391 202.688 4.13471L202.576 3.31404C203.669 3.1653 204.765 3.02286 205.863 2.88678L205.965 3.70873C207.054 3.57365 208.146 3.44485 209.241 3.32237L209.149 2.49927C210.246 2.37642 211.346 2.25992 212.449 2.1498L212.531 2.97394C213.63 2.86415 214.731 2.76072 215.835 2.66371L215.762 1.83866C216.858 1.74233 217.956 1.65231 219.056 1.56863L219.119 2.39448C220.215 2.31112 221.313 2.23407 222.413 2.16338L222.36 1.33685C223.463 1.26595 224.568 1.20143 225.676 1.14333L225.719 1.97043C226.82 1.91265 227.924 1.86125 229.029 1.81625L228.995 0.988699C230.094 0.94396 231.195 0.905539 232.298 0.873479L232.322 1.70136C233.421 1.6694 234.522 1.64377 235.626 1.62453L235.611 0.796421C236.718 0.777122 237.826 0.764226 238.936 0.757772L238.941 1.58599C239.494 1.58278 240.048 1.58116 240.602 1.58116C241.157 1.58116 241.711 1.58278 242.264 1.586L242.269 0.757775C243.379 0.76423 244.487 0.777129 245.594 0.796429L245.579 1.62454C246.683 1.64378 247.784 1.66941 248.884 1.70138L248.908 0.873492C250.01 0.905554 251.111 0.943976 252.21 0.988717L252.176 1.81627C253.282 1.86127 254.385 1.91267 255.486 1.97045L255.529 1.14335C256.637 1.20146 257.742 1.26598 258.846 1.33688L258.792 2.16341C259.893 2.2341 260.991 2.31115 262.086 2.39451L262.149 1.56866C263.249 1.65234 264.347 1.74237 265.443 1.83869L265.37 2.66375C266.474 2.76076 267.575 2.86419 268.674 2.97398L268.756 2.14984C269.859 2.25996 270.959 2.37646 272.056 2.49931L271.964 3.32241C273.059 3.44489 274.151 3.57369 275.241 3.70877L275.342 2.88683C276.44 3.02291 277.536 3.16535 278.629 3.31409L278.517 4.13476C279.613 4.28396 280.707 4.43952 281.798 4.60141L281.92 3.78214C283.014 3.94451 284.106 4.11322 285.196 4.28823L285.065 5.10598C286.151 5.28046 287.234 5.46121 288.315 5.64819L288.456 4.83208C289.549 5.02116 290.64 5.21658 291.728 5.41831L291.576 6.23265C292.663 6.43417 293.747 6.64199 294.828 6.85608L294.989 6.04362C296.073 6.25836 297.154 6.47938 298.233 6.70663L298.062 7.51707C299.14 7.74413 300.214 7.97744 301.286 8.21693L301.467 7.40863C302.55 7.65068 303.631 7.89904 304.708 8.15366L304.517 8.95968C305.591 9.21352 306.662 9.4736 307.73 9.73987L307.931 8.93624C309.002 9.20333 310.07 9.47663 311.135 9.7561L310.925 10.5572C311.993 10.8376 313.059 11.1243 314.121 11.4171L314.341 10.6186C315.41 10.9132 316.475 11.2141 317.537 11.5211L317.307 12.3167C318.366 12.6228 319.421 12.935 320.473 13.2533L320.713 12.4606C321.77 12.7804 322.824 13.1064 323.874 13.4385L323.624 14.2282C324.679 14.5618 325.731 14.9015 326.779 15.2474L327.038 14.4609C328.09 14.8079 329.137 15.161 330.181 15.5202L329.912 16.3034C330.952 16.6615 331.99 17.0256 333.023 17.3958L333.302 16.616C334.346 16.9897 335.385 17.3695 336.421 17.7553L336.132 18.5314C337.167 18.9171 338.198 19.3089 339.226 19.7067L339.525 18.9343C340.556 19.3333 341.583 19.7384 342.606 20.1495L342.297 20.918C343.319 21.3287 344.337 21.7453 345.351 22.1679L345.67 21.4034C346.694 21.8302 347.714 22.263 348.73 22.7018L348.402 23.4622C349.414 23.8996 350.423 24.3429 351.427 24.7922L351.765 24.0362C352.773 24.4869 353.777 24.9436 354.776 25.4061L354.428 26.1577C355.431 26.6221 356.43 27.0924 357.424 27.5686L357.782 26.8216C358.781 27.3 359.776 27.7844 360.766 28.2747L360.398 29.0169C361.385 29.5056 362.368 30.0001 363.346 30.5004L363.723 29.763C364.708 30.2668 365.688 30.7765 366.664 31.292L366.277 32.0243C367.254 32.5405 368.227 33.0625 369.195 33.5903L369.591 32.8632C370.562 33.3928 371.528 33.9281 372.49 34.4693L372.084 35.191C373.043 35.7307 373.997 36.2761 374.946 36.8272L375.362 36.1109C376.321 36.6681 377.276 37.231 378.226 37.7996L377.8 38.5102C378.747 39.0769 379.688 39.6494 380.625 40.2274L381.06 39.5227C381.999 40.1027 382.934 40.6884 383.863 41.2797L383.419 41.9785C384.351 42.5714 385.277 43.1699 386.199 43.774L386.653 43.0813C387.579 43.6887 388.5 44.3018 389.416 44.9204L388.952 45.6067C389.865 46.2232 390.772 46.8452 391.674 47.4728L392.147 46.7929C393.055 47.4249 393.958 48.0623 394.855 48.7053L394.372 49.3785C395.27 50.022 396.162 50.6711 397.049 51.3255L397.541 50.6592C398.43 51.316 399.314 51.9783 400.193 52.646L399.691 53.3053C400.568 53.9715 401.438 54.6431 402.303 55.3201L402.813 54.6679C403.687 55.3516 404.554 56.0407 405.415 56.7352L404.896 57.38C405.754 58.072 406.606 58.7694 407.453 59.4721L407.982 58.8348C408.831 59.54 409.674 60.2505 410.512 60.9663L409.974 61.5959C410.813 62.3138 411.647 63.037 412.474 63.7655L413.022 63.1439C413.852 63.8755 414.677 64.6124 415.495 65.3545L414.939 65.968C415.754 66.7073 416.563 67.4519 417.365 68.2015L417.931 67.5963C418.74 68.3523 419.543 69.1135 420.339 69.8798L419.765 70.4765C420.56 71.2417 421.348 72.012 422.13 72.7873L422.713 72.1992C423.498 72.9775 424.276 73.7608 425.047 74.5491L424.455 75.1283C425.226 75.9161 425.99 76.7089 426.747 77.5067L427.348 76.9366C428.11 77.7401 428.866 78.5487 429.615 79.3623L429.005 79.9231C429.751 80.7336 430.49 81.5489 431.222 82.3691L431.84 81.8177C432.575 82.6425 433.304 83.4722 434.026 84.3067L433.399 84.8484C434.121 85.6833 434.836 86.523 435.543 87.3675L436.178 86.8357C436.888 87.6835 437.591 88.5361 438.287 89.3935L437.644 89.9152C438.337 90.7697 439.022 91.629 439.701 92.4928L440.352 91.9813C441.036 92.8528 441.713 93.7291 442.382 94.61L441.723 95.1109C442.389 95.9883 443.048 96.8703 443.699 97.7568L444.367 97.2665C445.02 98.1566 445.666 99.0513 446.305 99.9506L445.629 100.43C446.268 101.33 446.898 102.234 447.521 103.142L448.204 102.674C448.83 103.587 449.447 104.504 450.057 105.425L449.366 105.882C449.973 106.8 450.572 107.722 451.162 108.648L451.861 108.203C452.456 109.136 453.043 110.074 453.622 111.016L452.916 111.449C453.493 112.388 454.061 113.331 454.622 114.278L455.334 113.856C455.897 114.807 456.451 115.763 456.997 116.722L456.277 117.132C456.822 118.089 457.358 119.051 457.885 120.016L458.612 119.619C459.143 120.59 459.664 121.565 460.178 122.544L459.444 122.928C459.955 123.903 460.457 124.881 460.951 125.864L461.691 125.492C462.187 126.48 462.675 127.472 463.154 128.468L462.407 128.827C462.884 129.819 463.352 130.816 463.812 131.816L464.564 131.47C465.026 132.474 465.478 133.483 465.922 134.495L465.163 134.827C465.604 135.835 466.037 136.847 466.461 137.862L467.225 137.543C467.651 138.563 468.067 139.587 468.474 140.615L467.704 140.92C468.11 141.943 468.506 142.97 468.893 144L469.668 143.709C470.057 144.743 470.436 145.781 470.806 146.823L470.026 147.1C470.394 148.136 470.753 149.176 471.102 150.22L471.888 149.957C472.239 151.005 472.58 152.056 472.913 153.111L472.123 153.359C472.453 154.409 472.774 155.462 473.085 156.517L473.88 156.283C474.192 157.342 474.495 158.404 474.788 159.47L473.989 159.69C474.281 160.75 474.563 161.814 474.836 162.881L475.638 162.676C475.912 163.747 476.176 164.821 476.43 165.898L475.624 166.088C475.876 167.157 476.118 168.229 476.351 169.304L477.16 169.128C477.394 170.208 477.618 171.291 477.832 172.376L477.019 172.536C477.232 173.617 477.435 174.7 477.628 175.786L478.444 175.641C478.637 176.726 478.82 177.813 478.993 178.904L478.175 179.034C478.348 180.119 478.51 181.207 478.663 182.298L479.483 182.183C479.636 183.279 479.779 184.377 479.912 185.478L479.09 185.577C479.222 186.666 479.343 187.757 479.455 188.851L480.279 188.766C480.391 189.864 480.493 190.964 480.585 192.066L479.76 192.135C479.851 193.232 479.932 194.332 480.004 195.434L480.83 195.381C480.901 196.48 480.963 197.582 481.013 198.686L480.186 198.724C480.237 199.82 480.277 200.918 480.308 202.018L481.136 201.995Z" stroke="white" stroke-width="1.65647" stroke-dasharray="3.31 3.31"/>
</svg>
