<svg width="484" height="498" viewBox="0 0 484 498" fill="none" xmlns="http://www.w3.org/2000/svg">
<path d="M531.908 213.542C531.949 214.885 531.976 216.234 531.99 217.588L530.99 217.598C530.997 218.271 531 218.946 531 219.622C531 220.285 530.997 220.947 530.99 221.609L531.99 221.619C531.977 222.95 531.951 224.282 531.912 225.613L530.912 225.584C530.873 226.909 530.822 228.234 530.757 229.559L531.756 229.608C531.691 230.938 531.614 232.268 531.524 233.599L530.526 233.531C530.437 234.852 530.335 236.172 530.22 237.493L531.216 237.579C531.102 238.906 530.974 240.232 530.834 241.558L529.84 241.453C529.701 242.773 529.549 244.092 529.386 245.411L530.378 245.534C530.215 246.853 530.039 248.171 529.852 249.488L528.862 249.348C528.675 250.659 528.476 251.97 528.266 253.281L529.253 253.439C529.042 254.755 528.819 256.071 528.584 257.385L527.599 257.209C527.367 258.512 527.122 259.814 526.866 261.115L527.848 261.308C527.591 262.613 527.323 263.917 527.043 265.22L526.066 265.011C525.787 266.308 525.498 267.604 525.197 268.899L526.171 269.125C525.87 270.422 525.558 271.717 525.235 273.01L524.265 272.768C523.944 274.052 523.612 275.335 523.269 276.616L524.235 276.874C523.891 278.161 523.537 279.446 523.171 280.729L522.209 280.456C521.846 281.732 521.472 283.007 521.087 284.28L522.044 284.569C521.66 285.841 521.266 287.11 520.861 288.378L519.908 288.074C519.505 289.337 519.091 290.598 518.667 291.857L519.615 292.176C519.189 293.44 518.754 294.702 518.308 295.962L517.365 295.628C516.924 296.876 516.472 298.121 516.011 299.364L516.949 299.712C516.486 300.959 516.014 302.204 515.532 303.447L514.6 303.085C514.119 304.323 513.629 305.558 513.13 306.792L514.056 307.167C513.557 308.4 513.048 309.631 512.529 310.859L511.608 310.47C511.093 311.69 510.568 312.908 510.035 314.123L510.95 314.525C510.415 315.744 509.87 316.961 509.316 318.175L508.406 317.76C507.855 318.968 507.294 320.174 506.725 321.377L507.629 321.805C507.06 323.005 506.483 324.203 505.897 325.398L504.999 324.957C504.415 326.148 503.822 327.336 503.22 328.521L504.112 328.974C503.508 330.163 502.896 331.348 502.275 332.531L501.39 332.066C500.774 333.239 500.149 334.409 499.517 335.576L500.396 336.053C499.762 337.222 499.119 338.388 498.469 339.551L497.596 339.062C496.947 340.221 496.291 341.377 495.626 342.529L496.492 343.029C495.826 344.182 495.152 345.332 494.471 346.479L493.611 345.967C492.934 347.106 492.249 348.242 491.555 349.374L492.408 349.896C491.713 351.032 491.01 352.163 490.299 353.292L489.453 352.758C488.744 353.883 488.028 355.004 487.304 356.121L488.143 356.665C487.42 357.78 486.689 358.892 485.951 360L485.119 359.445C484.383 360.549 483.64 361.649 482.89 362.746L483.715 363.31C482.962 364.41 482.202 365.506 481.435 366.597L480.617 366.022C479.853 367.108 479.083 368.189 478.305 369.267L479.116 369.852C478.337 370.931 477.552 372.006 476.759 373.076L475.955 372.481C475.165 373.548 474.368 374.61 473.564 375.669L474.36 376.274C473.553 377.335 472.74 378.392 471.92 379.444L471.131 378.83C470.316 379.876 469.494 380.918 468.666 381.955L469.447 382.579C468.616 383.619 467.778 384.655 466.934 385.686L466.16 385.052C465.318 386.08 464.47 387.103 463.616 388.121L464.382 388.764C463.526 389.784 462.663 390.8 461.794 391.81L461.036 391.158C460.171 392.164 459.299 393.166 458.421 394.163L459.172 394.824C458.291 395.823 457.404 396.818 456.511 397.807L455.769 397.137C454.879 398.124 453.983 399.105 453.081 400.081L453.815 400.76C452.912 401.737 452.002 402.71 451.086 403.678L450.36 402.99C449.447 403.955 448.528 404.914 447.604 405.868L448.322 406.564C447.395 407.52 446.462 408.472 445.523 409.417L444.813 408.713C443.878 409.656 442.936 410.593 441.989 411.524L442.691 412.237C441.741 413.172 440.786 414.1 439.825 415.023L439.133 414.302C438.175 415.222 437.212 416.137 436.243 417.046L436.927 417.775C435.956 418.686 434.979 419.592 433.996 420.492L433.321 419.754C432.341 420.652 431.356 421.544 430.366 422.429L431.033 423.175C430.04 424.063 429.041 424.945 428.038 425.821L427.38 425.068C426.38 425.941 425.375 426.809 424.364 427.67L425.013 428.431C423.998 429.295 422.979 430.154 421.955 431.006L421.315 430.237C420.293 431.086 419.267 431.93 418.236 432.767L418.866 433.543C417.831 434.383 416.792 435.216 415.748 436.042L415.128 435.258C414.086 436.082 413.04 436.9 411.99 437.711L412.601 438.503C411.545 439.318 410.485 440.126 409.421 440.928L408.819 440.129C407.758 440.928 406.692 441.72 405.621 442.506L406.213 443.312C405.139 444.1 404.061 444.88 402.979 445.654L402.398 444.841C401.316 445.614 400.23 446.38 399.14 447.139L399.711 447.96C398.617 448.722 397.519 449.477 396.416 450.224L395.855 449.397C394.756 450.142 393.653 450.88 392.545 451.61L393.096 452.445C391.984 453.179 390.868 453.905 389.748 454.624L389.208 453.782C388.088 454.501 386.965 455.212 385.838 455.915L386.367 456.763C385.236 457.469 384.102 458.167 382.963 458.857L382.445 458.001C381.31 458.689 380.172 459.369 379.03 460.041L379.537 460.903C378.387 461.58 377.233 462.249 376.075 462.91L375.579 462.042C374.425 462.701 373.267 463.352 372.106 463.995L372.59 464.87C371.425 465.515 370.256 466.152 369.084 466.781L368.612 465.9C367.441 466.528 366.267 467.147 365.089 467.759L365.55 468.646C364.366 469.261 363.178 469.868 361.987 470.466L361.538 469.572C360.351 470.168 359.161 470.755 357.968 471.333L358.404 472.233C357.207 472.814 356.006 473.386 354.803 473.949L354.379 473.043C353.173 473.608 351.964 474.163 350.753 474.709L351.164 475.621C349.948 476.169 348.73 476.708 347.508 477.238L347.11 476.321C345.893 476.849 344.674 477.367 343.452 477.877L343.836 478.8C342.605 479.314 341.371 479.818 340.134 480.312L339.763 479.384C338.528 479.878 337.291 480.362 336.051 480.837L336.409 481.771C335.165 482.247 333.919 482.714 332.67 483.171L332.326 482.232C331.08 482.688 329.831 483.135 328.58 483.571L328.91 484.515C327.649 484.955 326.386 485.385 325.121 485.805L324.806 484.856C323.545 485.275 322.283 485.683 321.019 486.081L321.319 487.035C320.05 487.435 318.779 487.824 317.506 488.203L317.22 487.245C315.945 487.624 314.668 487.994 313.389 488.353L313.659 489.315C312.375 489.676 311.089 490.025 309.802 490.364L309.547 489.397C308.265 489.735 306.981 490.062 305.695 490.378L305.934 491.349C304.639 491.668 303.342 491.975 302.044 492.272L301.821 491.297C300.526 491.593 299.229 491.878 297.931 492.152L298.137 493.131C296.834 493.406 295.529 493.669 294.223 493.922L294.033 492.94C292.731 493.192 291.427 493.433 290.122 493.662L290.296 494.647C288.981 494.878 287.666 495.097 286.349 495.305L286.194 494.317C284.883 494.524 283.571 494.719 282.259 494.902L282.397 495.893C281.079 496.077 279.76 496.249 278.44 496.41L278.319 495.417C277 495.578 275.681 495.726 274.362 495.863L274.464 496.857C273.139 496.994 271.812 497.119 270.485 497.232L270.401 496.236C269.08 496.348 267.759 496.448 266.437 496.536L266.503 497.534C265.173 497.622 263.843 497.698 262.513 497.761L262.465 496.762C261.14 496.825 259.815 496.876 258.49 496.914L258.518 497.914C257.187 497.952 255.855 497.978 254.524 497.99L254.514 496.99C253.851 496.997 253.189 497 252.526 497C251.855 497 251.184 496.997 250.514 496.992L250.506 497.992C249.161 497.982 247.818 497.961 246.478 497.93L246.501 496.93C245.166 496.899 243.834 496.858 242.504 496.807L242.466 497.806C241.127 497.754 239.791 497.692 238.458 497.62L238.512 496.622C237.173 496.549 235.837 496.466 234.504 496.373L234.435 497.371C233.097 497.277 231.761 497.174 230.429 497.06L230.514 496.064C229.186 495.95 227.861 495.826 226.54 495.693L226.439 496.687C225.1 496.552 223.764 496.406 222.431 496.25L222.547 495.257C221.219 495.101 219.895 494.936 218.574 494.76L218.442 495.751C217.116 495.575 215.792 495.388 214.473 495.191L214.62 494.202C213.295 494.005 211.974 493.797 210.656 493.58L210.493 494.566C209.168 494.347 207.847 494.118 206.53 493.879L206.709 492.895C205.397 492.657 204.088 492.409 202.783 492.151L202.589 493.132C201.271 492.872 199.957 492.601 198.647 492.32L198.857 491.342C197.549 491.062 196.245 490.772 194.946 490.472L194.721 491.446C193.416 491.145 192.115 490.833 190.817 490.512L191.058 489.541C189.76 489.22 188.466 488.889 187.177 488.548L186.921 489.514C185.623 489.171 184.33 488.818 183.04 488.455L183.311 487.492C182.027 487.13 180.746 486.759 179.47 486.378L179.184 487.336C177.899 486.952 176.618 486.558 175.342 486.154L175.643 485.201C174.368 484.798 173.098 484.385 171.832 483.962L171.515 484.911C170.244 484.487 168.977 484.053 167.716 483.609L168.047 482.666C166.787 482.223 165.532 481.77 164.281 481.308L163.935 482.246C162.676 481.781 161.421 481.306 160.172 480.822L160.533 479.89C159.289 479.407 158.049 478.915 156.814 478.414L156.438 479.34C155.196 478.836 153.959 478.322 152.727 477.799L153.118 476.879C151.887 476.356 150.662 475.824 149.442 475.283L149.036 476.197C147.811 475.654 146.591 475.101 145.377 474.539L145.797 473.631C144.585 473.071 143.379 472.501 142.178 471.922L141.744 472.823C140.535 472.24 139.332 471.648 138.134 471.047L138.582 470.153C137.389 469.554 136.202 468.946 135.02 468.329L134.557 469.216C133.369 468.596 132.187 467.967 131.01 467.329L131.487 466.45C130.312 465.813 129.143 465.167 127.98 464.512L127.489 465.383C126.321 464.725 125.159 464.059 124.003 463.384L124.508 462.52C123.355 461.847 122.208 461.165 121.068 460.474L120.55 461.33C119.402 460.635 118.261 459.931 117.126 459.219L117.657 458.372C116.527 457.662 115.402 456.944 114.284 456.217L113.739 457.056C112.615 456.325 111.498 455.587 110.387 454.839L110.945 454.01C109.837 453.264 108.735 452.51 107.639 451.747L107.068 452.568C105.968 451.802 104.874 451.028 103.787 450.246L104.372 449.434C103.288 448.655 102.212 447.867 101.142 447.07L100.545 447.873C99.4691 447.072 98.4 446.263 97.3378 445.446L97.9474 444.653C96.8894 443.84 95.8381 443.018 94.7937 442.188L94.1715 442.97C93.1225 442.137 92.0804 441.295 91.0453 440.445L91.6798 439.672C90.6477 438.825 89.6225 437.969 88.6045 437.106L87.9577 437.869C86.9356 437.002 85.9206 436.128 84.9129 435.245L85.5716 434.493C84.5676 433.614 83.5707 432.727 82.581 431.832L81.9104 432.574C80.916 431.675 79.929 430.768 78.9494 429.853L79.6318 429.122C78.6561 428.212 77.6878 427.293 76.727 426.367L76.0331 427.087C75.0682 426.158 74.1109 425.22 73.1613 424.275L73.8666 423.566C72.9202 422.625 71.9815 421.676 71.0504 420.72L70.3339 421.417C69.3991 420.457 68.4721 419.49 67.5529 418.515L68.2804 417.829C67.3648 416.858 66.457 415.88 65.5571 414.894L64.8187 415.569C63.915 414.579 63.0193 413.582 62.1315 412.579L62.8806 411.916C61.9964 410.916 61.1203 409.91 60.2522 408.896L59.4926 409.546C58.6211 408.529 57.7578 407.504 56.9026 406.472L57.6725 405.834C56.8209 404.807 55.9775 403.772 55.1423 402.731L54.3623 403.357C53.5238 402.312 52.6937 401.26 51.872 400.201L52.6619 399.588C51.8436 398.534 51.0337 397.473 50.2323 396.406L49.4326 397.006C48.6284 395.935 47.8326 394.857 47.0455 393.773L47.8547 393.185C47.0707 392.105 46.2953 391.019 45.5286 389.926L44.71 390.501C43.9404 389.404 43.1796 388.301 42.4275 387.191L43.2553 386.63C42.5068 385.526 41.7672 384.416 41.0363 383.299L40.1996 383.847C39.4658 382.726 38.7409 381.598 38.025 380.465L38.8705 379.931C38.1578 378.803 37.4541 377.669 36.7594 376.529L35.9054 377.049C35.2087 375.905 34.5211 374.756 33.8426 373.601L34.7049 373.094C34.0291 371.944 33.3625 370.787 32.705 369.625L31.8346 370.117C31.175 368.951 30.5246 367.779 29.8835 366.602L30.7618 366.124C30.1243 364.953 29.4961 363.776 28.8772 362.594L27.9913 363.058C27.3699 361.871 26.7579 360.678 26.1555 359.48L27.0488 359.031C26.4493 357.839 25.8592 356.642 25.2787 355.439L24.3781 355.873C23.7964 354.668 23.2242 353.458 22.6616 352.242L23.5692 351.822C23.0089 350.611 22.4583 349.395 21.9173 348.174L21.003 348.579C20.4603 347.354 19.9274 346.124 19.4042 344.889L20.325 344.499C19.8054 343.272 19.2955 342.04 18.7953 340.803L17.8683 341.178C17.3661 339.936 16.8738 338.689 16.3914 337.438L17.3245 337.078C16.8446 335.833 16.3746 334.583 15.9145 333.328L14.9756 333.673C14.5152 332.417 14.0648 331.157 13.6244 329.892L14.5688 329.563C14.1302 328.303 13.7016 327.039 13.283 325.77L12.3334 326.083C11.9136 324.811 11.5039 323.534 11.1045 322.252L12.0592 321.955C11.663 320.684 11.2769 319.408 10.901 318.129L9.94153 318.41C9.56406 317.126 9.19682 315.837 8.83988 314.543L9.80384 314.277C9.44869 312.99 9.10378 311.699 8.76921 310.404L7.80099 310.654C7.46681 309.361 7.1429 308.063 6.82935 306.762L7.80154 306.527C7.48927 305.231 7.18733 303.931 6.89579 302.627L5.91988 302.845C5.62729 301.536 5.34515 300.224 5.07353 298.907L6.05291 298.705C5.7842 297.403 5.52585 296.097 5.27793 294.787L4.29538 294.973C4.04645 293.658 3.808 292.34 3.58012 291.017L4.56559 290.848C4.33864 289.531 4.12222 288.21 3.91642 286.887L2.92829 287.04C2.72328 285.722 2.52877 284.4 2.34483 283.074L3.33534 282.937C3.1522 281.617 2.97958 280.294 2.81759 278.968L1.82496 279.089C1.6623 277.758 1.5103 276.423 1.36905 275.085L2.36352 274.98C2.22395 273.658 2.0949 272.333 1.97648 271.005L0.980433 271.093C0.861701 269.762 0.753599 268.427 0.656212 267.09L1.65357 267.017C1.55658 265.685 1.47025 264.35 1.39469 263.012L0.396277 263.068C0.320952 261.735 0.25627 260.398 0.202312 259.059L1.2015 259.019C1.14794 257.69 1.10498 256.358 1.07272 255.023L0.0730158 255.047C0.0406254 253.707 0.0189708 252.365 0.00813322 251.02L1.0081 251.012C1.0027 250.342 1 249.671 1 249C1 248.329 1.0027 247.658 1.0081 246.988L0.00813556 246.98C0.0189746 245.635 0.0406306 244.292 0.0730221 242.952L1.07273 242.977C1.10499 241.642 1.14795 240.31 1.20151 238.981L0.202322 238.94C0.256281 237.601 0.320965 236.265 0.396291 234.931L1.3947 234.988C1.47027 233.65 1.55659 232.315 1.65359 230.983L0.656229 230.91C0.753617 229.573 0.86172 228.238 0.980451 226.906L1.9765 226.995C2.09493 225.667 2.22397 224.342 2.36354 223.02L1.36907 222.915C1.51033 221.577 1.66233 220.242 1.82499 218.911L2.81761 219.032C2.97961 217.706 3.15223 216.383 3.33537 215.063L2.34486 214.926C2.5288 213.6 2.72331 212.278 2.92832 210.96L3.91645 211.113C4.12225 209.789 4.33867 208.469 4.56562 207.152L3.58015 206.982C3.80803 205.66 4.04648 204.342 4.29541 203.027L5.27796 203.213C5.52588 201.903 5.78423 200.597 6.05293 199.295L5.07356 199.093C5.34518 197.776 5.62732 196.464 5.91991 195.155L6.89582 195.373C7.18736 194.069 7.4893 192.769 7.80157 191.473L6.82938 191.238C7.14293 189.937 7.46684 188.639 7.80102 187.346L8.76923 187.596C9.1038 186.301 9.44871 185.01 9.80387 183.723L8.83991 183.457C9.19685 182.163 9.56409 180.874 9.94155 179.589L10.901 179.871C11.2769 178.592 11.663 177.316 12.0592 176.045L11.1045 175.748C11.5039 174.466 11.9136 173.189 12.3334 171.917L13.2831 172.23C13.7016 170.961 14.1302 169.697 14.5688 168.437L13.6244 168.108C14.0648 166.843 14.5153 165.583 14.9757 164.327L15.9145 164.672C16.3746 163.417 16.8446 162.167 17.3245 160.922L16.3914 160.562C16.8738 159.311 17.3661 158.064 17.8683 156.822L18.7953 157.197C19.2955 155.96 19.8054 154.728 20.325 153.501L19.4042 153.111C19.9274 151.876 20.4603 150.646 21.0029 149.421L21.9172 149.826C22.4582 148.605 23.0089 147.389 23.5692 146.178L22.6616 145.758C23.2242 144.542 23.7963 143.332 24.3781 142.127L25.2786 142.561C25.8592 141.359 26.4493 140.161 27.0488 138.969L26.1554 138.52C26.7579 137.322 27.3699 136.129 27.9912 134.942L28.8772 135.406C29.496 134.224 30.1243 133.047 30.7617 131.877L29.8835 131.398C30.5245 130.221 31.1749 129.049 31.8346 127.883L32.705 128.375C33.3624 127.213 34.029 126.057 34.7048 124.906L33.8425 124.399C34.521 123.244 35.2086 122.095 35.9053 120.951L36.7593 121.472C37.454 120.331 38.1577 119.197 38.8704 118.069L38.0249 117.535C38.7408 116.402 39.4657 115.275 40.1995 114.153L41.0362 114.701C41.7671 113.585 42.5068 112.474 43.2552 111.37L42.4274 110.809C43.1795 109.7 43.9403 108.596 44.7099 107.5L45.5285 108.074C46.2952 106.981 47.0706 105.895 47.8546 104.815L47.0454 104.227C47.8325 103.143 48.6283 102.065 49.4325 100.994L50.2322 101.594C51.0336 100.527 51.8435 99.4661 52.6618 98.4119L51.8719 97.7987C52.6936 96.7401 53.5237 95.6881 54.3622 94.643L55.1422 95.2687C55.9774 94.2277 56.8208 93.1935 57.6724 92.1661L56.9025 91.5279C57.7577 90.4963 58.621 89.4716 59.4925 88.4538L60.2521 89.1042C61.1202 88.0905 61.9963 87.0837 62.8805 86.0839L62.1314 85.4215C63.0191 84.4177 63.9149 83.4211 64.8186 82.4316L65.5569 83.106C66.4569 82.1206 67.3647 81.1424 68.2803 80.1714L67.5528 79.4853C68.472 78.5106 69.399 77.5431 70.3338 76.5829L71.0503 77.2805C71.9813 76.3242 72.9201 75.3752 73.8665 74.4337L73.1612 73.7248C74.1108 72.78 75.0681 71.8426 76.0329 70.9128L76.7269 71.6329C77.6877 70.7069 78.656 69.7885 79.6317 68.8777L78.9493 68.1467C79.9289 67.2323 80.9159 66.3255 81.9103 65.4265L82.5809 66.1683C83.5705 65.2736 84.5674 64.3865 85.5715 63.5073L84.9128 62.755C85.9205 61.8725 86.9355 60.9979 87.9576 60.1312L88.6044 60.8939C89.6224 60.0306 90.6476 59.1753 91.6797 58.3279L91.0452 57.555C92.0803 56.7052 93.1224 55.8634 94.1713 55.0297L94.7935 55.8126C95.838 54.9825 96.8892 54.1605 97.9473 53.3467L97.3376 52.5541C98.3999 51.737 99.4689 50.9281 100.545 50.1276L101.142 50.9298C102.212 50.1335 103.288 49.3455 104.372 48.5657L103.787 47.7541C104.874 46.9718 105.968 46.1977 107.068 45.4321L107.639 46.2529C108.735 45.4903 109.837 44.7362 110.945 43.9906L110.387 43.1608C111.498 42.4135 112.615 41.6747 113.739 40.9446L114.284 41.783C115.402 41.0563 116.527 40.338 117.657 39.6285L117.126 38.7814C118.261 38.069 119.402 37.3654 120.55 36.6705L121.068 37.5258C122.208 36.8351 123.355 36.1531 124.507 35.4798L124.003 34.6164C125.159 33.9411 126.321 33.2746 127.489 32.6171L127.98 33.4884C129.143 32.8335 130.312 32.1875 131.487 31.5504L131.01 30.6713C132.187 30.0332 133.369 29.4041 134.557 28.784L135.02 29.6706C136.202 29.0536 137.389 28.4457 138.582 27.8469L138.134 26.9532C139.332 26.352 140.535 25.76 141.744 25.1772L142.178 26.078C143.379 25.499 144.585 24.9292 145.797 24.3686L145.377 23.461C146.591 22.899 147.811 22.3463 149.036 21.8029L149.442 22.717C150.662 22.1758 151.887 21.6438 153.118 21.1213L152.727 20.2009C153.959 19.6777 155.196 19.1639 156.438 18.6596L156.814 19.5862C158.049 19.0848 159.289 18.5929 160.533 18.1104L160.172 17.178C161.421 16.6937 162.676 16.2189 163.935 15.7537L164.281 16.6917C165.532 16.2297 166.787 15.7772 168.047 15.3343L167.716 14.3909C168.978 13.9473 170.244 13.5134 171.515 13.0892L171.832 14.0377C173.098 13.6152 174.368 13.2023 175.643 12.7992L175.342 11.8457C176.618 11.4422 177.899 11.0483 179.184 10.6643L179.47 11.6224C180.746 11.2412 182.027 10.8696 183.311 10.5079L183.04 9.54537C184.33 9.18222 185.623 8.82894 186.921 8.48559L187.177 9.45233C188.467 9.11118 189.76 8.77989 191.058 8.45853L190.818 7.48785C192.115 7.16664 193.416 6.85531 194.721 6.55397L194.946 7.52833C196.246 7.22817 197.549 6.93796 198.857 6.65777L198.647 5.67997C199.957 5.3992 201.271 5.12845 202.589 4.86783L202.783 5.84882C204.088 5.59073 205.397 5.34259 206.709 5.1045L206.53 4.12057C207.848 3.88153 209.168 3.65258 210.493 3.43379L210.656 4.42041C211.974 4.20267 213.295 3.99504 214.62 3.79759L214.473 2.80852C215.793 2.61183 217.116 2.42522 218.442 2.24876L218.574 3.24003C219.895 3.06426 221.22 2.8986 222.547 2.74314L222.431 1.74993C223.764 1.59386 225.1 1.44803 226.439 1.31251L226.54 2.30743C227.862 2.17366 229.187 2.04997 230.515 1.93647L230.429 0.940099C231.762 0.826221 233.097 0.722544 234.435 0.629146L234.505 1.62672C235.838 1.53368 237.173 1.45089 238.512 1.37841L238.458 0.379873C239.791 0.307684 241.127 0.245694 242.466 0.193979L242.505 1.19323C243.834 1.14186 245.167 1.10067 246.502 1.06974L246.478 0.0700058C247.819 0.03895 249.161 0.0181882 250.506 0.00779772L250.514 1.00777C251.184 1.00259 251.855 1 252.526 1C253.196 1 253.865 1.0019 254.535 1.00569L254.54 0.0057048C255.883 0.0133096 257.226 0.0285137 258.569 0.0512932L258.552 1.05115C259.891 1.07386 261.229 1.10413 262.568 1.14194L262.596 0.142334C263.938 0.180244 265.281 0.225707 266.622 0.2787L266.583 1.27792C267.921 1.33078 269.259 1.39115 270.597 1.45902L270.648 0.460302C271.989 0.528353 273.329 0.603914 274.67 0.686961L274.608 1.68505C275.944 1.76786 277.28 1.85815 278.615 1.95587L278.688 0.95854C280.028 1.05664 281.367 1.16222 282.706 1.27525L282.622 2.2717C283.956 2.38442 285.29 2.50457 286.623 2.63213L286.718 1.63668C288.055 1.7646 289.39 1.89994 290.725 2.04269L290.618 3.03702C291.951 3.17957 293.282 3.32952 294.612 3.48686L294.729 2.49378C296.064 2.65162 297.397 2.81686 298.728 2.98948L298.6 3.98119C299.928 4.15334 301.254 4.33285 302.579 4.5197L302.719 3.5295C304.049 3.71711 305.378 3.91211 306.705 4.11446L306.555 5.10304C307.88 5.30506 309.203 5.51443 310.524 5.73112L310.686 4.7443C312.012 4.9616 313.335 5.18625 314.657 5.41823L314.484 6.40317C315.803 6.63472 317.12 6.87358 318.435 7.11974L318.619 6.13681C319.941 6.3842 321.261 6.63893 322.578 6.90098L322.383 7.88177C323.697 8.14309 325.008 8.41171 326.318 8.6876L326.524 7.70909C327.837 7.98586 329.148 8.26993 330.457 8.56128L330.24 9.53738C331.549 9.82893 332.856 10.1278 334.161 10.4339L334.389 9.46036C335.698 9.76736 337.003 10.0817 338.306 10.4033L338.066 11.3741C339.366 11.6948 340.662 12.0227 341.956 12.3579L342.207 11.3898C343.509 11.7273 344.809 12.0721 346.105 12.4242L345.843 13.3892C347.137 13.7405 348.427 14.099 349.715 14.4648L349.988 13.5028C351.279 13.8697 352.567 14.2438 353.852 14.6251L353.568 15.5838C354.853 15.9654 356.136 16.3542 357.414 16.7504L357.71 15.7951C358.995 16.1931 360.276 16.5983 361.554 17.0108L361.247 17.9624C362.521 18.3737 363.791 18.7922 365.058 19.2179L365.376 18.2701C366.65 18.6984 367.921 19.134 369.188 19.5768L368.857 20.5208C370.124 20.9636 371.386 21.4136 372.645 21.8709L372.986 20.931C374.249 21.3897 375.507 21.8557 376.761 22.3289L376.408 23.2645C377.661 23.7374 378.91 24.2175 380.155 24.7049L380.519 23.7737C381.773 24.2646 383.022 24.7628 384.267 25.2682L383.89 26.1948C385.131 26.6987 386.368 27.2098 387.599 27.7282L387.987 26.8065C389.225 27.3274 390.458 27.8556 391.686 28.391L391.286 29.3076C392.517 29.8442 393.743 30.3881 394.964 30.9393L395.375 30.0278C396.6 30.5808 397.82 31.141 399.035 31.7086L398.611 32.6146C399.823 33.1808 401.03 33.7542 402.231 34.3349L402.666 33.4346C403.88 34.021 405.087 34.6148 406.29 35.2159L405.843 36.1103C407.041 36.7094 408.234 37.3159 409.421 37.9296L409.88 37.0412C411.072 37.6571 412.258 38.2803 413.438 38.9108L412.966 39.7928C414.151 40.4259 415.33 41.0664 416.503 41.7141L416.987 40.8388C418.164 41.4888 419.335 42.1462 420.5 42.8109L420.004 43.6794C421.165 44.3419 422.319 45.0116 423.468 45.6885L423.976 44.8271C425.137 45.5117 426.291 46.2037 427.44 46.9031L426.919 47.7571C428.064 48.4543 429.202 49.1587 430.333 49.8705L430.865 49.0242C432.001 49.7386 433.129 50.4604 434.251 51.1895L433.706 52.0279C434.831 52.7597 435.95 53.4989 437.062 54.2455L437.619 53.4153C438.736 54.1652 439.845 54.9225 440.947 55.6873L440.377 56.5088C441.475 57.2707 442.566 58.0398 443.649 58.8163L444.231 58.0036C445.327 58.7887 446.414 59.5813 447.494 60.3813L446.899 61.1848C447.975 61.9823 449.044 62.7873 450.105 63.5996L450.713 62.8056C451.778 63.6212 452.835 64.4442 453.884 65.2746L453.263 66.0587C454.316 66.8915 455.36 67.7318 456.395 68.5795L457.029 67.8057C458.069 68.6575 459.102 69.5168 460.126 70.3835L459.479 71.1467C460.499 72.0099 461.51 72.8804 462.513 73.7583L463.171 73.0061C464.185 73.8936 465.189 74.7887 466.185 75.6914L465.514 76.4322C466.506 77.3314 467.489 78.2381 468.462 79.1521L469.147 78.4229C470.125 79.341 471.094 80.2664 472.053 81.1993L471.356 81.9164C472.318 82.8512 473.27 83.7934 474.213 84.7431L474.923 84.0387C475.87 84.9927 476.807 85.9543 477.734 86.9233L477.012 87.6148C477.936 88.5798 478.85 89.5521 479.754 90.5318L480.489 89.8537C481.402 90.8431 482.304 91.8401 483.197 92.8445L482.45 93.5088C483.338 94.5086 484.216 95.5158 485.084 96.5304L485.844 95.8803C486.717 96.9003 487.579 97.9278 488.431 98.9627L487.659 99.5981C488.509 100.632 489.349 101.673 490.179 102.722L490.963 102.101C491.796 103.155 492.619 104.216 493.43 105.285L492.634 105.89C493.442 106.954 494.239 108.025 495.025 109.104L495.833 108.515C496.624 109.601 497.405 110.695 498.173 111.796L497.353 112.369C498.118 113.464 498.872 114.568 499.614 115.678L500.445 115.122C501.191 116.239 501.926 117.362 502.648 118.493L501.806 119.032C502.525 120.158 503.232 121.291 503.928 122.431L504.782 121.911C505.481 123.057 506.168 124.211 506.844 125.372L505.979 125.874C506.65 127.029 507.309 128.19 507.956 129.359L508.831 128.874C509.481 130.048 510.119 131.23 510.744 132.418L509.859 132.884C510.481 134.066 511.09 135.255 511.687 136.452L512.581 136.005C513.18 137.206 513.766 138.413 514.34 139.628L513.435 140.055C514.005 141.261 514.561 142.474 515.105 143.694L516.019 143.287C516.565 144.513 517.099 145.747 517.62 146.988L516.698 147.375C517.214 148.604 517.717 149.84 518.206 151.082L519.137 150.716C519.628 151.962 520.106 153.216 520.571 154.476L519.633 154.823C520.096 156.076 520.545 157.337 520.981 158.604L521.927 158.278C522.362 159.544 522.784 160.816 523.193 162.095L522.24 162.4C522.646 163.668 523.038 164.944 523.416 166.226L524.375 165.942C524.756 167.231 525.123 168.527 525.477 169.829L524.512 170.091C524.86 171.374 525.195 172.663 525.516 173.959L526.487 173.718C526.809 175.017 527.118 176.322 527.413 177.634L526.437 177.854C526.731 179.158 527.01 180.469 527.276 181.787L528.257 181.589C528.521 182.897 528.772 184.212 529.009 185.532L528.024 185.709C528.259 187.018 528.481 188.334 528.689 189.655L529.677 189.5C529.886 190.828 530.081 192.163 530.262 193.504L529.271 193.638C529.449 194.952 529.614 196.273 529.765 197.6L530.758 197.487C530.909 198.814 531.047 200.147 531.171 201.486L530.175 201.578C530.298 202.91 530.408 204.248 530.504 205.591L531.501 205.52C531.596 206.851 531.678 208.188 531.746 209.53L530.747 209.58C530.814 210.906 530.868 212.236 530.909 213.573L531.908 213.542Z" stroke="#C4C4C4" stroke-width="2" stroke-dasharray="4 4"/>
</svg>
