<svg width="18" height="15" viewBox="0 0 18 15" fill="none" xmlns="http://www.w3.org/2000/svg">
<path d="M1.41853 14.6707C1.41853 14.6707 0 14.6707 0 13.4482C0 12.2256 1.41853 8.55792 8.5112 8.55792C15.6039 8.55792 17.0224 12.2256 17.0224 13.4482C17.0224 14.6707 15.6039 14.6707 15.6039 14.6707H1.41853ZM8.5112 7.33536C9.63985 7.33536 10.7223 6.94894 11.5204 6.26112C12.3184 5.5733 12.7668 4.64041 12.7668 3.66768C12.7668 2.69495 12.3184 1.76206 11.5204 1.07424C10.7223 0.386415 9.63985 0 8.5112 0C7.38254 0 6.30011 0.386415 5.50203 1.07424C4.70395 1.76206 4.2556 2.69495 4.2556 3.66768C4.2556 4.64041 4.70395 5.5733 5.50203 6.26112C6.30011 6.94894 7.38254 7.33536 8.5112 7.33536Z" fill="#EEEEEE"/>
</svg>
