<svg width="21" height="15" viewBox="0 0 21 15" fill="none" xmlns="http://www.w3.org/2000/svg">
<path d="M16.7348 0.464794L15.4548 1.39631L10.0048 5.16897L4.55483 1.35905L3.27483 0.427533C2.97329 0.195161 2.60518 0.0503047 2.21612 0.0109108C1.82706 -0.0284832 1.43414 0.0393163 1.08604 0.20591C0.737943 0.372503 0.449961 0.630569 0.257775 0.948136C0.0655881 1.2657 -0.0223571 1.62882 0.00483439 1.99249V12.7888C0.00483439 13.1248 0.14812 13.447 0.403169 13.6846C0.658219 13.9222 1.00414 14.0557 1.36483 14.0557H4.55483V6.86434L10.0048 10.6743L15.4548 6.86434V14.0557H18.6448C19.0055 14.0557 19.3515 13.9222 19.6065 13.6846C19.8615 13.447 20.0048 13.1248 20.0048 12.7888V1.99249C20.0236 1.63195 19.9296 1.2741 19.7341 0.962433C19.5386 0.650764 19.2502 0.398699 18.9038 0.236879C18.5574 0.0750595 18.168 0.0104536 17.783 0.0509148C17.3979 0.091376 17.0338 0.235162 16.7348 0.464794Z" fill="black"/>
</svg>
