<svg width="18" height="18" viewBox="0 0 18 18" fill="none" xmlns="http://www.w3.org/2000/svg">
<path d="M2 17.9778H16C16.5304 17.9778 17.0391 17.7962 17.4142 17.473C17.7893 17.1497 18 16.7113 18 16.2541V8.49749C18.0008 8.38406 17.9755 8.27163 17.9258 8.16662C17.876 8.06162 17.8027 7.96611 17.71 7.88558L9.71 0.990792C9.52264 0.830272 9.26919 0.740173 9.005 0.740173C8.74081 0.740173 8.48736 0.830272 8.3 0.990792L0.3 7.88558C0.205512 7.9654 0.130342 8.06058 0.0788453 8.16562C0.0273487 8.27066 0.00054925 8.38346 0 8.49749V16.2541C0 16.7113 0.210714 17.1497 0.585786 17.473C0.960859 17.7962 1.46957 17.9778 2 17.9778ZM7 16.2541V11.9449H11V16.2541H7ZM2 8.85085L9 2.81791L16 8.85085V16.2541H13V11.9449C13 11.4877 12.7893 11.0493 12.4142 10.726C12.0391 10.4028 11.5304 10.2212 11 10.2212H7C6.46957 10.2212 5.96086 10.4028 5.58579 10.726C5.21071 11.0493 5 11.4877 5 11.9449V16.2541H2V8.85085Z" fill="#EEEEEE"/>
</svg>
