<svg width="24" height="24" viewBox="0 0 24 24" fill="none" xmlns="http://www.w3.org/2000/svg">
<path d="M11.8039 2.55065C14.9292 2.55065 15.2961 2.56458 16.5313 2.62031C17.6737 2.67139 18.2913 2.86179 18.7046 3.02432C19.2526 3.23794 19.6427 3.48871 20.0513 3.89736C20.46 4.30602 20.7154 4.6961 20.9244 5.24407C21.0823 5.65738 21.2773 6.275 21.3284 7.41739C21.3841 8.65265 21.398 9.01951 21.398 12.1448C21.398 15.2701 21.3841 15.637 21.3284 16.8722C21.2773 18.0146 21.0869 18.6322 20.9244 19.0455C20.7108 19.5935 20.46 19.9836 20.0513 20.3923C19.6427 20.8009 19.2526 21.0563 18.7046 21.2653C18.2913 21.4232 17.6737 21.6182 16.5313 21.6693C15.2961 21.725 14.9292 21.739 11.8039 21.739C8.67859 21.739 8.31173 21.725 7.07647 21.6693C5.93409 21.6182 5.31646 21.4278 4.90316 21.2653C4.35519 21.0517 3.9651 20.8009 3.55645 20.3923C3.14779 19.9836 2.89238 19.5935 2.68341 19.0455C2.52552 18.6322 2.33047 18.0146 2.27939 16.8722C2.22367 15.637 2.20974 15.2701 2.20974 12.1448C2.20974 9.01951 2.22367 8.65265 2.27939 7.41739C2.33047 6.275 2.52087 5.65738 2.68341 5.24407C2.89702 4.6961 3.14779 4.30602 3.55645 3.89736C3.9651 3.48871 4.35519 3.2333 4.90316 3.02432C5.31646 2.86643 5.93409 2.67139 7.07647 2.62031C8.31173 2.55994 8.67859 2.55065 11.8039 2.55065ZM11.8039 0.442352C8.62751 0.442352 8.22814 0.456284 6.97895 0.51201C5.7344 0.567736 4.88458 0.76742 4.14157 1.05534C3.37069 1.35254 2.72056 1.75656 2.07042 2.40669C1.42028 3.05683 1.02091 3.71161 0.719065 4.47784C0.431147 5.22086 0.231463 6.07068 0.175737 7.31987C0.120011 8.56441 0.106079 8.96378 0.106079 12.1402C0.106079 15.3165 0.120011 15.7159 0.175737 16.9651C0.231463 18.2097 0.431147 19.0595 0.719065 19.8071C1.01627 20.578 1.42028 21.2281 2.07042 21.8783C2.72056 22.5284 3.37534 22.9278 4.14157 23.2296C4.88458 23.5176 5.7344 23.7172 6.98359 23.773C8.23278 23.8287 8.62751 23.8426 11.8085 23.8426C14.9896 23.8426 15.3843 23.8287 16.6335 23.773C17.878 23.7172 18.7278 23.5176 19.4755 23.2296C20.2464 22.9324 20.8965 22.5284 21.5466 21.8783C22.1968 21.2281 22.5962 20.5734 22.898 19.8071C23.1859 19.0641 23.3856 18.2143 23.4413 16.9651C23.4971 15.7159 23.511 15.3212 23.511 12.1402C23.511 8.95914 23.4971 8.56441 23.4413 7.31522C23.3856 6.07068 23.1859 5.22086 22.898 4.4732C22.6008 3.70232 22.1968 3.05219 21.5466 2.40205C20.8965 1.75191 20.2417 1.35254 19.4755 1.05069C18.7325 0.762777 17.8827 0.563092 16.6335 0.507366C15.3796 0.456284 14.9803 0.442352 11.8039 0.442352Z" fill="black"/>
<path d="M11.8039 6.13101C8.48822 6.13101 5.7948 8.81979 5.7948 12.1401C5.7948 15.4605 8.48822 18.1492 11.8039 18.1492C15.1196 18.1492 17.813 15.4558 17.813 12.1401C17.813 8.82443 15.1196 6.13101 11.8039 6.13101ZM11.8039 16.0409C9.64918 16.0409 7.9031 14.2949 7.9031 12.1401C7.9031 9.98539 9.64918 8.23931 11.8039 8.23931C13.9587 8.23931 15.7047 9.98539 15.7047 12.1401C15.7047 14.2949 13.9587 16.0409 11.8039 16.0409Z" fill="black"/>
<path d="M18.0499 7.2967C18.8244 7.2967 19.4523 6.6688 19.4523 5.89426C19.4523 5.11971 18.8244 4.49182 18.0499 4.49182C17.2754 4.49182 16.6475 5.11971 16.6475 5.89426C16.6475 6.6688 17.2754 7.2967 18.0499 7.2967Z" fill="black"/>
</svg>
