<svg width="18" height="19" viewBox="0 0 18 19" fill="none" xmlns="http://www.w3.org/2000/svg">
<path fill-rule="evenodd" clip-rule="evenodd" d="M17.8426 18.0564H14.1786V11.8159C14.1786 10.1049 13.5285 9.14869 12.1742 9.14869C10.7009 9.14869 9.93122 10.1437 9.93122 11.8159V18.0564H6.40017V6.16823H9.93122V7.76957C9.93122 7.76957 10.9929 5.80502 13.5157 5.80502C16.0373 5.80502 17.8426 7.34486 17.8426 10.5296V18.0564ZM2.18763 4.61156C0.984873 4.61156 0.0102539 3.62929 0.0102539 2.41784C0.0102539 1.20639 0.984873 0.224121 2.18763 0.224121C3.39038 0.224121 4.36442 1.20639 4.36442 2.41784C4.36442 3.62929 3.39038 4.61156 2.18763 4.61156ZM0.36435 18.0564H4.04633V6.16823H0.36435V18.0564Z" fill="black"/>
</svg>
