<svg width="16" height="16" viewBox="0 0 16 16" fill="none" xmlns="http://www.w3.org/2000/svg">
<path d="M10.5 2.5C10.5 3.16304 10.2366 3.79893 9.76777 4.26777C9.29893 4.73661 8.66304 5 8 5C7.33696 5 6.70107 4.73661 6.23223 4.26777C5.76339 3.79893 5.5 3.16304 5.5 2.5C5.5 1.83696 5.76339 1.20107 6.23223 0.732233C6.70107 0.263392 7.33696 0 8 0C8.66304 0 9.29893 0.263392 9.76777 0.732233C10.2366 1.20107 10.5 1.83696 10.5 2.5ZM15.5 3C15.5 3.53043 15.2893 4.03914 14.9142 4.41421C14.5391 4.78929 14.0304 5 13.5 5C12.9696 5 12.4609 4.78929 12.0858 4.41421C11.7107 4.03914 11.5 3.53043 11.5 3C11.5 2.46957 11.7107 1.96086 12.0858 1.58579C12.4609 1.21071 12.9696 1 13.5 1C14.0304 1 14.5391 1.21071 14.9142 1.58579C15.2893 1.96086 15.5 2.46957 15.5 3ZM2.5 5C3.03043 5 3.53914 4.78929 3.91421 4.41421C4.28929 4.03914 4.5 3.53043 4.5 3C4.5 2.46957 4.28929 1.96086 3.91421 1.58579C3.53914 1.21071 3.03043 1 2.5 1C1.96957 1 1.46086 1.21071 1.08579 1.58579C0.710714 1.96086 0.5 2.46957 0.5 3C0.5 3.53043 0.710714 4.03914 1.08579 4.41421C1.46086 4.78929 1.96957 5 2.5 5ZM4 7.25C4 6.56 4.56 6 5.25 6H10.75C11.44 6 12 6.56 12 7.25V12C12 13.0609 11.5786 14.0783 10.8284 14.8284C10.0783 15.5786 9.06087 16 8 16C6.93913 16 5.92172 15.5786 5.17157 14.8284C4.42143 14.0783 4 13.0609 4 12V7.25ZM3 7.25C3 6.787 3.14 6.358 3.379 6H1.25C0.56 6 1.78381e-08 6.56 1.78381e-08 7.25V11C-4.66659e-05 11.4281 0.0915386 11.8513 0.268602 12.2411C0.445665 12.6309 0.704104 12.9782 1.02655 13.2599C1.34901 13.5415 1.728 13.7508 2.13807 13.8738C2.54813 13.9968 2.97978 14.0307 3.404 13.973C3.13645 13.3497 2.99898 12.6783 3 12V7.25ZM13 12C13 12.7 12.856 13.368 12.596 13.973C13.0202 14.0307 13.4519 13.9968 13.8619 13.8738C14.272 13.7508 14.651 13.5415 14.9734 13.2599C15.2959 12.9782 15.5543 12.6309 15.7314 12.2411C15.9085 11.8513 16 11.4281 16 11V7.25C16 6.56 15.44 6 14.75 6H12.621C12.861 6.358 13 6.787 13 7.25V12Z" fill="white"/>
</svg>
