<svg width="19" height="18" viewBox="0 0 19 18" fill="none" xmlns="http://www.w3.org/2000/svg">
<path d="M18.7174 2.52558C18.0564 2.86475 17.3462 3.09392 16.5997 3.1975C17.37 2.66381 17.9463 1.82384 18.221 0.834333C17.4973 1.33207 16.7053 1.68243 15.8793 1.87017C15.3238 1.18346 14.5881 0.728298 13.7864 0.575351C12.9846 0.422403 12.1617 0.580225 11.4453 1.02431C10.729 1.4684 10.1593 2.17391 9.82473 3.03131C9.49016 3.88871 9.40941 4.85002 9.59503 5.766C8.12861 5.68075 6.69407 5.23942 5.38449 4.47066C4.07491 3.70191 2.91957 2.6229 1.99345 1.30367C1.67678 1.93617 1.4947 2.6695 1.4947 3.4505C1.49434 4.15358 1.64387 4.84589 1.93002 5.466C2.21616 6.08612 2.63007 6.61487 3.13503 7.00533C2.54941 6.98376 1.97672 6.80053 1.46461 6.47092V6.52592C1.46455 7.51201 1.75914 8.46776 2.29838 9.231C2.83763 9.99423 3.58832 10.5179 4.42307 10.7133C3.87982 10.8835 3.31026 10.9086 2.7574 10.7866C2.99292 11.6351 3.45169 12.377 4.06949 12.9086C4.68728 13.4402 5.43317 13.7347 6.20274 13.7511C4.89636 14.9385 3.28298 15.5827 1.62215 15.5798C1.32796 15.5799 1.03401 15.56 0.741821 15.5203C2.42766 16.7753 4.39009 17.4414 6.39432 17.4388C13.1789 17.4388 16.8879 10.9323 16.8879 5.28933C16.8879 5.106 16.8839 4.92083 16.8768 4.7375C17.5982 4.13339 18.221 3.38532 18.7158 2.52833L18.7174 2.52558Z" fill="black"/>
</svg>
